# xmcd CD database file
#
# Track frame offsets:
#	150
#	7213
#	15223
#	20398
#	26684
#	33364
#	40089
#	45692
#	53483
#	59550
#	67240
#	74728
#	84232
#	92761
#	100405
#	109551
#	116527
#	124258
#	131307
#	140442
#	148309
#
# Disc length: 2143 seconds
#
# Revision: 0
# Processed by: cddbd v1.5.2PL0 Copyright (c) Steve Scherf et al.
# Submitted via: CDex 1.70beta2
#
DISCID=26085d15
DTITLE=Unknown Hinson - 21 Chart-Toppers
DYEAR=1994
DGENRE=Country
TTITLE0=You Ain't Callin' the Law
TTITLE1=Soon I'll Get My Revenge
TTITLE2=Get the Hell On
TTITLE3=It Don't Bother Me
TTITLE4=The Poem
TTITLE5=Baby
TTITLE6=When I Get Out
TTITLE7=Nevermind Your Male Hormones
TTITLE8=Put Down Your Picket Sign
TTITLE9=Love on Command
TTITLE10=Shimmy Shimmy Baby-Lou
TTITLE11=I'm the King
TTITLE12=Mona Marie
TTITLE13=Baby, Let's Play Rough
TTITLE14=Knockdown, Drag out Love Life
TTITLE15=She's Alotta Woman
TTITLE16=Be the Woman
TTITLE17=I Ain't Afraid Of Your Husband
TTITLE18=Dirty Dog
TTITLE19=Black and Blue Christmas
TTITLE20=Don't Want No Trouble
EXTD=YEAR: 1994
EXTT0=
EXTT1=
EXTT2=
EXTT3=
EXTT4=
EXTT5=
EXTT6=
EXTT7=
EXTT8=
EXTT9=
EXTT10=
EXTT11=
EXTT12=
EXTT13=
EXTT14=
EXTT15=
EXTT16=
EXTT17=
EXTT18=
EXTT19=
EXTT20=
PLAYORDER=
